<?xml version="1.0" encoding="UTF-8" standalone="no"?>
<!DOCTYPE svg PUBLIC "-//W3C//DTD SVG 1.1//EN" "http://www.w3.org/Graphics/SVG/1.1/DTD/svg11.dtd">
<svg width="100%" height="100%" viewBox="0 0 2816 845" version="1.1" xmlns="http://www.w3.org/2000/svg" xmlns:xlink="http://www.w3.org/1999/xlink" xml:space="preserve" xmlns:serif="http://www.serif.com/" style="fill-rule:evenodd;clip-rule:evenodd;stroke-linejoin:round;stroke-miterlimit:2;">
    <g transform="matrix(1,0,0,1,-319.682,-627.153)">
        <g transform="matrix(1.00921,0,0,2.27385,173.758,-3085.57)">
            <rect x="144.593" y="1632.79" width="2789.54" height="371.273" style="fill:rgb(124,211,252);"/>
        </g>
        <g transform="matrix(0.960139,0,0,1.16369,258.072,-294.481)">
            <path d="M1173.62,1517.46L964.873,1136.6L171.403,1188.44L310.523,1517.46L1173.62,1517.46Z" style="fill:rgb(224,241,254);"/>
        </g>
        <g transform="matrix(0.941448,0,0,0.948226,183.556,32.47)">
            <path d="M1550.68,1517.46L1489.07,1350.14L946.419,1402.91L971.797,1517.46L1550.68,1517.46Z" style="fill:rgb(187,231,251);"/>
        </g>
        <g transform="matrix(0.550614,0,0,1.75827,2299.68,-1196.74)">
            <path d="M1516.9,1517.46L980.243,1180.81L171.403,1188.44L279.9,1517.46L1516.9,1517.46Z" style="fill:rgb(187,231,251);"/>
        </g>
        <g transform="matrix(0.960139,0,0,0.866844,256.783,36.2251)">
            <path d="M457.406,957.863C477.825,869.097 557.381,802.828 652.294,802.828C762.657,802.828 852.258,892.429 852.258,1002.79C852.258,1020.85 849.86,1038.35 845.362,1055C847.645,1054.86 849.944,1054.8 852.258,1054.8C915.153,1054.8 966.215,1105.86 966.215,1168.75C966.215,1231.65 915.153,1282.71 852.258,1282.71L286.703,1282.71C223.809,1282.71 172.746,1231.65 172.746,1168.75C172.746,1105.86 223.809,1054.8 286.703,1054.8C295.364,1054.8 303.8,1055.76 311.916,1057.6C309.946,1050.04 308.899,1042.11 308.899,1033.94C308.899,982.2 350.905,940.193 402.645,940.193C423.082,940.193 442.001,946.748 457.406,957.863Z" style="fill:rgb(239,249,255);"/>
        </g>
        <g transform="matrix(0.654512,0,0,0.659225,958.516,572.527)">
            <path d="M457.406,957.863C477.825,869.097 557.381,802.828 652.294,802.828C762.657,802.828 852.258,892.429 852.258,1002.79C852.258,1020.85 849.86,1038.35 845.362,1055C847.645,1054.86 849.944,1054.8 852.258,1054.8C915.153,1054.8 966.215,1105.86 966.215,1168.75C966.215,1231.65 915.153,1282.71 852.258,1282.71L286.703,1282.71C223.809,1282.71 172.746,1231.65 172.746,1168.75C172.746,1105.86 223.809,1054.8 286.703,1054.8C295.364,1054.8 303.8,1055.76 311.916,1057.6C309.946,1050.04 308.899,1042.11 308.899,1033.94C308.899,982.2 350.905,940.193 402.645,940.193C423.082,940.193 442.001,946.748 457.406,957.863Z" style="fill:rgb(239,249,255);"/>
        </g>
        <g transform="matrix(-0.634689,0,0,0.58428,2949.05,193.675)">
            <path d="M457.406,957.863C477.825,869.097 557.381,802.828 652.294,802.828C762.657,802.828 852.258,892.429 852.258,1002.79C852.258,1020.85 849.86,1038.35 845.362,1055C847.645,1054.86 849.944,1054.8 852.258,1054.8C915.153,1054.8 966.215,1105.86 966.215,1168.75C966.215,1231.65 915.153,1282.71 852.258,1282.71L286.703,1282.71C223.809,1282.71 172.746,1231.65 172.746,1168.75C172.746,1105.86 223.809,1054.8 286.703,1054.8C295.364,1054.8 303.8,1055.76 311.916,1057.6C309.946,1050.04 308.899,1042.11 308.899,1033.94C308.899,982.2 350.905,940.193 402.645,940.193C423.082,940.193 442.001,946.748 457.406,957.863Z" style="fill:rgb(239,249,255);"/>
        </g>
        <g transform="matrix(1.0277,0,0,1.16696,1529.47,-299.45)">
            <path d="M1173.62,1517.46L964.873,1136.6L171.403,1188.44L279.9,1517.46L1173.62,1517.46Z" style="fill:rgb(224,241,254);"/>
        </g>
        <g transform="matrix(1.03786,0,0,0.959599,1518.29,-76.0131)">
            <path d="M457.406,957.863C477.825,869.097 557.381,802.828 652.294,802.828C762.657,802.828 852.258,892.429 852.258,1002.79C852.258,1020.85 849.86,1038.35 845.362,1055C847.645,1054.86 849.944,1054.8 852.258,1054.8C915.153,1054.8 966.215,1105.86 966.215,1168.75C966.215,1231.65 915.153,1282.71 852.258,1282.71L286.703,1282.71C223.809,1282.71 172.746,1231.65 172.746,1168.75C172.746,1105.86 223.809,1054.8 286.703,1054.8C295.364,1054.8 303.8,1055.76 311.916,1057.6C309.946,1050.04 308.899,1042.11 308.899,1033.94C308.899,982.2 350.905,940.193 402.645,940.193C423.082,940.193 442.001,946.748 457.406,957.863Z" style="fill:rgb(239,249,255);"/>
        </g>
        <g transform="matrix(-0.414917,0,0,0.417905,1721.68,396.646)">
            <path d="M457.406,957.863C477.825,869.097 557.381,802.828 652.294,802.828C762.657,802.828 852.258,892.429 852.258,1002.79C852.258,1020.85 849.86,1038.35 845.362,1055C847.645,1054.86 849.944,1054.8 852.258,1054.8C915.153,1054.8 966.215,1105.86 966.215,1168.75C966.215,1231.65 915.153,1282.71 852.258,1282.71L286.703,1282.71C223.809,1282.71 172.746,1231.65 172.746,1168.75C172.746,1105.86 223.809,1054.8 286.703,1054.8C295.364,1054.8 303.8,1055.76 311.916,1057.6C309.946,1050.04 308.899,1042.11 308.899,1033.94C308.899,982.2 350.905,940.193 402.645,940.193C423.082,940.193 442.001,946.748 457.406,957.863Z" style="fill:rgb(239,249,255);"/>
        </g>
    </g>
</svg>
