<?xml version="1.0" encoding="UTF-8" standalone="no"?>
<!DOCTYPE svg PUBLIC "-//W3C//DTD SVG 1.1//EN" "http://www.w3.org/Graphics/SVG/1.1/DTD/svg11.dtd">
<svg width="100%" height="100%" viewBox="0 0 237 385" version="1.1" xmlns="http://www.w3.org/2000/svg" xmlns:xlink="http://www.w3.org/1999/xlink" xml:space="preserve" xmlns:serif="http://www.serif.com/" style="fill-rule:evenodd;clip-rule:evenodd;stroke-linejoin:round;stroke-miterlimit:2;">
    <g transform="matrix(0.370795,-0.146404,0.116454,0.466156,-888.583,-266.159)">
        <path d="M2126.07,1498.51L2386.57,1498.51L2386.57,2060.97L2256.32,1965.12L2126.07,2060.97L2126.07,1498.51Z" style="fill:rgb(100,116,139);"/>
    </g>
    <g transform="matrix(0.363611,0.172547,-0.137249,0.457125,-490.194,-969.741)">
        <path d="M2126.07,1498.51L2386.57,1498.51L2386.57,2060.97L2256.32,1965.12L2126.07,2060.97L2126.07,1498.51Z" style="fill:rgb(148,163,184);"/>
    </g>
    <g transform="matrix(0.710204,0,0,0.710204,-1241.08,-622.433)">
        <circle cx="1911.64" cy="1040.55" r="164.139" style="fill:rgb(249,115,22);"/>
    </g>
    <g transform="matrix(0.791904,0,0,0.791904,-1420.36,-722.581)">
        <path d="M1912.61,954.426C1912.61,938.862 1925.24,926.227 1940.81,926.227C1956.37,926.227 1969,938.862 1969,954.426C1976.79,940.947 1994.05,936.322 2007.52,944.104C2021,951.886 2025.63,969.146 2017.85,982.624C2031.32,974.843 2048.58,979.468 2056.37,992.946C2064.15,1006.42 2059.52,1023.69 2046.04,1031.47C2061.61,1031.47 2074.24,1044.1 2074.24,1059.66C2074.24,1075.23 2061.61,1087.86 2046.04,1087.86C2059.52,1095.65 2064.15,1112.91 2056.37,1126.38C2048.58,1139.86 2031.32,1144.49 2017.85,1136.71C2025.63,1150.18 2021,1167.44 2007.52,1175.23C1994.05,1183.01 1976.79,1178.38 1969,1164.9C1969,1180.47 1956.37,1193.1 1940.81,1193.1C1925.24,1193.1 1912.61,1180.47 1912.61,1164.9C1904.82,1178.38 1887.56,1183.01 1874.09,1175.23C1860.61,1167.44 1855.98,1150.18 1863.76,1136.71C1850.29,1144.49 1833.03,1139.86 1825.24,1126.38C1817.46,1112.91 1822.09,1095.65 1835.57,1087.86C1820,1087.86 1807.37,1075.23 1807.37,1059.66C1807.37,1044.1 1820,1031.47 1835.57,1031.47C1822.09,1023.69 1817.46,1006.42 1825.24,992.946C1833.03,979.468 1850.29,974.843 1863.76,982.624C1855.98,969.146 1860.61,951.886 1874.09,944.104C1887.56,936.322 1904.82,940.947 1912.61,954.426Z" style="fill:rgb(254,240,138);"/>
    </g>
    <g transform="matrix(0.152015,0,0,0.152015,-281.144,-188.062)">
        <path d="M2616.3,1628.98L2720.59,1855C2722.04,1858.14 2724.3,1860.86 2727.14,1862.89C2729.99,1864.91 2733.32,1866.18 2736.81,1866.56L2988.16,1894.02L2801.27,2061.17C2798.67,2063.49 2796.73,2066.43 2795.65,2069.72C2794.56,2072.99 2794.36,2076.49 2795.07,2079.87L2846.12,2322.86L2626.32,2200.14C2623.27,2198.44 2619.81,2197.54 2616.3,2197.54C2612.78,2197.54 2609.33,2198.44 2606.27,2200.14L2386.47,2322.86L2437.52,2079.87C2438.23,2076.49 2438.03,2072.99 2436.94,2069.72C2435.86,2066.43 2433.92,2063.49 2431.32,2061.17L2244.43,1894.02L2495.78,1866.56C2499.27,1866.18 2502.61,1864.91 2505.45,1862.89C2508.29,1860.86 2510.55,1858.14 2512,1855L2616.3,1628.98Z" style="fill:rgb(249,115,22);"/>
    </g>
</svg>
