<?xml version="1.0" encoding="UTF-8" standalone="no"?>
<!DOCTYPE svg PUBLIC "-//W3C//DTD SVG 1.1//EN" "http://www.w3.org/Graphics/SVG/1.1/DTD/svg11.dtd">
<svg width="100%" height="100%" viewBox="0 0 627 599" version="1.1" xmlns="http://www.w3.org/2000/svg" xmlns:xlink="http://www.w3.org/1999/xlink" xml:space="preserve" xmlns:serif="http://www.serif.com/" style="fill-rule:evenodd;clip-rule:evenodd;stroke-linecap:round;stroke-linejoin:round;stroke-miterlimit:1.5;">
    <g transform="matrix(1.1547,0,0,1.14305,-509.228,-1616.5)">
        <ellipse cx="712.192" cy="1675.99" rx="271.186" ry="261.788" style="fill:white;"/>
    </g>
    <g transform="matrix(0.550692,0,0,0.583449,-731.643,-519.619)">
        <rect x="1613.03" y="1333.89" width="21.457" height="77.148" style="fill:rgb(100,116,139);"/>
    </g>
    <g transform="matrix(0.550692,0,0,0.583449,-731.643,-519.619)">
        <rect x="1602.3" y="1437.06" width="40.221" height="59.21" style="fill:rgb(100,116,139);"/>
    </g>
    <g transform="matrix(0.550692,0,0,0.583449,-731.643,-519.619)">
        <path d="M1613.03,1496.27L1592.03,1674.93L1613.03,1682.83L1623.75,1690.55L1642.52,1678.57L1663.27,1675.69L1634.48,1496.27L1613.03,1496.27Z" style="fill:rgb(100,116,139);"/>
    </g>
    <g transform="matrix(0.550692,0,0,0.583449,-733.846,-519.619)">
        <ellipse cx="1624.76" cy="1424.89" rx="25.244" ry="21.87" style="fill:rgb(100,116,139);"/>
    </g>
    <g transform="matrix(0.550692,0,0,0.583449,-731.643,-519.619)">
        <path d="M1683.54,1496.27L1683.23,1496.27L1683.23,1275L2147.52,1275L2147.52,1496.27L2147.21,1496.27C2140.9,1561.62 2039.44,1613.63 1915.37,1613.63C1791.31,1613.63 1689.85,1561.62 1683.54,1496.27Z" style="fill:rgb(148,163,184);"/>
    </g>
    <g transform="matrix(0.611328,0,0,0.664855,-847.457,-615.127)">
        <path d="M1906.18,1134.11C1911.73,1131.99 1917.96,1131.99 1923.5,1134.11C1967.83,1151.07 2170.92,1228.76 2266.53,1265.33C2274.93,1268.55 2280.41,1276.1 2280.41,1284.47C2280.41,1292.84 2274.93,1300.39 2266.53,1303.61C2170.92,1340.18 1967.83,1417.88 1923.5,1434.83C1917.96,1436.95 1911.73,1436.95 1906.18,1434.83C1861.86,1417.88 1658.76,1340.18 1563.16,1303.61C1554.75,1300.39 1549.27,1292.84 1549.27,1284.47C1549.27,1276.1 1554.75,1268.55 1563.16,1265.33C1658.76,1228.76 1861.86,1151.07 1906.18,1134.11Z" style="fill:rgb(203,213,225);stroke:white;stroke-width:26.1px;"/>
    </g>
</svg>
