<?xml version="1.0" encoding="UTF-8" standalone="no"?>
<!DOCTYPE svg PUBLIC "-//W3C//DTD SVG 1.1//EN" "http://www.w3.org/Graphics/SVG/1.1/DTD/svg11.dtd">
<svg width="100%" height="100%" viewBox="0 0 1467 1275" version="1.1" xmlns="http://www.w3.org/2000/svg" xmlns:xlink="http://www.w3.org/1999/xlink" xml:space="preserve" xmlns:serif="http://www.serif.com/" style="fill-rule:evenodd;clip-rule:evenodd;stroke-linejoin:round;stroke-miterlimit:2;">
    <g transform="matrix(0.774404,0,0,0.792125,-4373.78,-901.372)">
        <path d="M7309.02,2449.77C7309.02,2425.81 7289.12,2406.36 7264.62,2406.36L5886.71,2406.36C5862.21,2406.36 5842.31,2425.81 5842.31,2449.77L5842.31,2536.59C5842.31,2560.55 5862.21,2580 5886.71,2580L7264.62,2580C7289.12,2580 7309.02,2560.55 7309.02,2536.59L7309.02,2449.77Z" style="fill:rgb(100,116,139);"/>
    </g>
    <g transform="matrix(0.774404,0,0,0.792125,-4373.78,-901.372)">
        <path d="M7192.09,1358.58C7192.09,1329.11 7167.61,1305.19 7137.47,1305.19L7028.24,1305.19C6998.09,1305.19 6973.62,1329.11 6973.62,1358.58L6973.62,2291.7C6973.62,2321.17 6998.09,2345.09 7028.24,2345.09L7137.47,2345.09C7167.61,2345.09 7192.09,2321.17 7192.09,2291.7L7192.09,1358.58Z" style="fill:rgb(100,116,139);"/>
    </g>
    <g transform="matrix(0.774404,0,0,0.792125,-4373.78,-901.372)">
        <path d="M7192.09,1358.58C7192.09,1329.11 7167.61,1305.19 7137.47,1305.19L7028.24,1305.19C6998.09,1305.19 6973.62,1329.11 6973.62,1358.58L6973.62,2291.7C6973.62,2321.17 6998.09,2345.09 7028.24,2345.09L7137.47,2345.09C7167.61,2345.09 7192.09,2321.17 7192.09,2291.7L7192.09,1358.58Z" style="fill:rgb(249,115,22);"/>
    </g>
    <g transform="matrix(0.774404,0,0,0.396063,-4619.84,27.4306)">
        <path d="M7192.09,1411.98C7192.09,1353.04 7167.61,1305.19 7137.47,1305.19L7028.24,1305.19C6998.09,1305.19 6973.62,1353.04 6973.62,1411.98L6973.62,2238.3C6973.62,2297.24 6998.09,2345.09 7028.24,2345.09L7137.47,2345.09C7167.61,2345.09 7192.09,2297.24 7192.09,2238.3L7192.09,1411.98Z" style="fill:rgb(14,165,233);"/>
    </g>
    <g transform="matrix(0.774404,0,0,0.590871,-4880.97,-429.414)">
        <path d="M7192.09,1376.77C7192.09,1337.26 7167.61,1305.19 7137.47,1305.19L7028.24,1305.19C6998.09,1305.19 6973.62,1337.26 6973.62,1376.77L6973.62,2273.51C6973.62,2313.02 6998.09,2345.09 7028.24,2345.09L7137.47,2345.09C7167.61,2345.09 7192.09,2313.02 7192.09,2273.51L7192.09,1376.77Z" style="fill:rgb(12,74,110);"/>
    </g>
    <g transform="matrix(0.774404,0,0,0.178389,-5147.05,537.895)">
        <path d="M7192.09,1542.29C7192.09,1411.43 7167.61,1305.19 7137.47,1305.19L7028.24,1305.19C6998.09,1305.19 6973.62,1411.43 6973.62,1542.29L6973.62,2107.99C6973.62,2238.85 6998.09,2345.09 7028.24,2345.09L7137.47,2345.09C7167.61,2345.09 7192.09,2238.85 7192.09,2107.99L7192.09,1542.29Z" style="fill:rgb(147,197,253);"/>
    </g>
</svg>
