<?xml version="1.0" encoding="UTF-8" standalone="no"?>
<!DOCTYPE svg PUBLIC "-//W3C//DTD SVG 1.1//EN" "http://www.w3.org/Graphics/SVG/1.1/DTD/svg11.dtd">
<svg width="100%" height="100%" viewBox="0 0 917 752" version="1.1" xmlns="http://www.w3.org/2000/svg" xmlns:xlink="http://www.w3.org/1999/xlink" xml:space="preserve" xmlns:serif="http://www.serif.com/" style="fill-rule:evenodd;clip-rule:evenodd;stroke-linejoin:round;stroke-miterlimit:2;">
    <g transform="matrix(0.852339,0,0,0.963513,-945.349,-422.684)">
        <path d="M1650,1218.59C1550.99,1096.3 1272.99,970.481 1177.42,868.542C1060.44,743.77 1081.04,530.682 1339.04,453.763C1515.37,401.196 1608.62,497.823 1650,564.272L1650,557.981C1694.32,492.433 1786.86,407.802 1954.3,457.722C2212.31,534.641 2232.9,747.729 2115.93,872.502C2022.42,972.245 1754.25,1094.85 1650,1214.63L1650,1218.59Z" style="fill:rgb(14,165,233);"/>
    </g>
    <g transform="matrix(0.588351,0,0,0.665092,-510.647,-175.401)">
        <path d="M1650,1218.59C1550.99,1096.3 1272.99,970.481 1177.42,868.542C1060.44,743.77 1081.04,530.682 1339.04,453.763C1515.37,401.196 1608.62,497.823 1650,564.272L1650,557.981C1694.32,492.433 1786.86,407.802 1954.3,457.722C2212.31,534.641 2232.9,747.729 2115.93,872.502C2022.42,972.245 1754.25,1094.85 1650,1214.63L1650,1218.59Z" style="fill:rgb(147,197,253);"/>
    </g>
</svg>
