<?xml version="1.0" encoding="UTF-8" standalone="no"?>
<!DOCTYPE svg PUBLIC "-//W3C//DTD SVG 1.1//EN" "http://www.w3.org/Graphics/SVG/1.1/DTD/svg11.dtd">
<svg width="100%" height="100%" viewBox="0 0 627 599" version="1.1" xmlns="http://www.w3.org/2000/svg" xmlns:xlink="http://www.w3.org/1999/xlink" xml:space="preserve" xmlns:serif="http://www.serif.com/" style="fill-rule:evenodd;clip-rule:evenodd;stroke-linejoin:round;stroke-miterlimit:2;">
    <g transform="matrix(1.1547,0,0,1.14305,-509.228,-1616.5)">
        <ellipse cx="712.192" cy="1675.99" rx="271.186" ry="261.788" style="fill:white;"/>
    </g>
    <g transform="matrix(0.335705,0,0,0.341901,-268.692,-157.821)">
        <rect x="1129.78" y="974.672" width="1275.94" height="815.794" style="fill:rgb(12,74,110);"/>
    </g>
    <g transform="matrix(0.335705,0,0,0.351294,-280.821,-186.978)">
        <rect x="1129.78" y="974.672" width="1275.94" height="815.794" style="fill:rgb(203,213,225);"/>
    </g>
    <g transform="matrix(0.669859,0,0,0.984389,-1524.37,-757.764)">
        <path d="M2448.74,1201.77L2448.74,971.548L2658.99,971.548C2678.3,971.548 2696.82,976.768 2710.47,986.058C2724.12,995.349 2731.79,1007.95 2731.79,1021.09L2731.79,1231.33C2731.79,1203.85 2709.57,1201.94 2682.14,1201.77L2681.82,1201.77L2448.74,1201.77Z" style="fill:rgb(148,163,184);"/>
    </g>
    <g transform="matrix(-0.669859,0,0,0.984389,2151.32,-757.764)">
        <path d="M2448.74,1201.77L2448.74,971.548L2658.99,971.548C2678.3,971.548 2696.82,976.768 2710.47,986.058C2724.12,995.349 2731.79,1007.95 2731.79,1021.09L2731.79,1231.33C2731.79,1203.85 2709.57,1201.94 2682.14,1201.77L2681.82,1201.77L2448.74,1201.77Z" style="fill:rgb(148,163,184);"/>
    </g>
    <g transform="matrix(-0.669859,0,0,0.984389,2151.32,-777.86)">
        <path d="M2448.74,1201.77L2448.74,971.548L2658.99,971.548C2699.2,971.548 2731.79,993.728 2731.79,1021.09L2731.79,1251.74C2731.79,1224.27 2709.57,1201.94 2682.14,1201.77L2681.82,1201.77L2448.74,1201.77Z" style="fill:white;"/>
    </g>
    <g transform="matrix(0.669859,0,0,0.984389,-1524.37,-777.86)">
        <path d="M2448.74,1201.77L2448.74,971.548L2658.99,971.548C2699.2,971.548 2731.79,993.728 2731.79,1021.09L2731.79,1251.74C2731.79,1224.27 2709.57,1201.94 2682.14,1201.77L2681.82,1201.77L2448.74,1201.77Z" style="fill:white;"/>
    </g>
    <g transform="matrix(0.669859,0,0,0.669859,-1524.37,-479.304)">
        <rect x="2508.38" y="1043.67" width="186.566" height="15.233" style="fill:rgb(100,116,139);"/>
    </g>
    <g transform="matrix(0.669859,0,0,0.669859,-1524.37,-479.304)">
        <rect x="2508.38" y="1043.67" width="186.566" height="15.233" style="fill:rgb(100,116,139);"/>
    </g>
    <g transform="matrix(0.669859,0,0,0.669859,-1524.37,-443.881)">
        <rect x="2508.38" y="1043.67" width="186.566" height="15.233" style="fill:rgb(100,116,139);"/>
    </g>
    <g transform="matrix(0.669859,0,0,0.669859,-1524.37,-408.407)">
        <rect x="2508.38" y="1043.67" width="186.566" height="15.233" style="fill:rgb(100,116,139);"/>
    </g>
    <g transform="matrix(0.669859,0,0,0.669859,-1524.37,-371.507)">
        <rect x="2508.38" y="1043.67" width="186.566" height="15.233" style="fill:rgb(100,116,139);"/>
    </g>
    <g transform="matrix(0.669859,0,0,0.669859,-1326.54,-474.794)">
        <rect x="2508.38" y="1043.67" width="186.566" height="15.233" style="fill:rgb(100,116,139);"/>
    </g>
    <g transform="matrix(0.669859,0,0,0.669859,-1326.54,-474.794)">
        <rect x="2508.38" y="1043.67" width="186.566" height="15.233" style="fill:rgb(100,116,139);"/>
    </g>
    <g transform="matrix(0.669859,0,0,0.669859,-1326.54,-439.371)">
        <rect x="2508.38" y="1043.67" width="186.566" height="15.233" style="fill:rgb(100,116,139);"/>
    </g>
    <g transform="matrix(0.669859,0,0,0.669859,-1326.54,-403.897)">
        <rect x="2508.38" y="1043.67" width="186.566" height="15.233" style="fill:rgb(100,116,139);"/>
    </g>
    <g transform="matrix(0.669859,0,0,0.669859,-1326.54,-366.997)">
        <rect x="2508.38" y="1043.67" width="186.566" height="15.233" style="fill:rgb(100,116,139);"/>
    </g>
</svg>
