<?xml version="1.0" encoding="UTF-8" standalone="no"?>
<!DOCTYPE svg PUBLIC "-//W3C//DTD SVG 1.1//EN" "http://www.w3.org/Graphics/SVG/1.1/DTD/svg11.dtd">
<svg width="100%" height="100%" viewBox="0 0 306 299" version="1.1" xmlns="http://www.w3.org/2000/svg" xmlns:xlink="http://www.w3.org/1999/xlink" xml:space="preserve" xmlns:serif="http://www.serif.com/" style="fill-rule:evenodd;clip-rule:evenodd;stroke-linejoin:round;stroke-miterlimit:2;">
    <g transform="matrix(0.892803,0,0,0.742447,-369.197,-1058.17)">
        <path d="M577.125,1481.97C578.567,1477.53 582.703,1474.53 587.369,1474.53C592.036,1474.53 596.172,1477.53 597.614,1481.97C608.218,1514.61 624.055,1563.35 630.052,1581.81C631.494,1586.25 635.63,1589.25 640.297,1589.25C659.704,1589.25 710.955,1589.25 745.27,1589.25C749.937,1589.25 754.073,1592.26 755.515,1596.69C756.957,1601.13 755.377,1606 751.602,1608.74C723.84,1628.91 682.377,1659.03 666.676,1670.44C662.901,1673.18 661.321,1678.04 662.763,1682.48C668.761,1700.94 684.598,1749.68 695.202,1782.32C696.644,1786.76 695.064,1791.62 691.289,1794.36C687.513,1797.1 682.401,1797.1 678.626,1794.36C650.864,1774.19 609.402,1744.07 593.701,1732.66C589.925,1729.92 584.813,1729.92 581.038,1732.66C565.337,1744.07 523.874,1774.19 496.113,1794.36C492.337,1797.1 487.225,1797.1 483.45,1794.36C479.674,1791.62 478.095,1786.76 479.537,1782.32C490.141,1749.68 505.978,1700.94 511.975,1682.48C513.417,1678.04 511.837,1673.18 508.062,1670.44C492.361,1659.03 450.899,1628.91 423.137,1608.74C419.361,1606 417.782,1601.13 419.224,1596.69C420.666,1592.26 424.802,1589.25 429.468,1589.25C463.784,1589.25 515.034,1589.25 534.442,1589.25C539.108,1589.25 543.244,1586.25 544.686,1581.81C550.683,1563.35 566.521,1514.61 577.125,1481.97ZM577.196,1570.28C578.703,1565.95 582.785,1563.05 587.369,1563.05C591.953,1563.05 596.035,1565.95 597.542,1570.28C602.299,1583.94 607.57,1599.09 610.599,1607.79C612.106,1612.12 616.187,1615.02 620.771,1615.02C630.041,1615.02 646.287,1615.02 661.355,1615.02C666.086,1615.02 670.263,1618.1 671.652,1622.63C673.041,1627.15 671.316,1632.05 667.401,1634.7C655.744,1642.61 643.328,1651.03 635.875,1656.08C631.837,1658.82 630.144,1663.93 631.748,1668.54C634.692,1677 639.573,1691.02 644.086,1703.98C645.612,1708.37 644.157,1713.24 640.474,1716.06C636.792,1718.89 631.711,1719.04 627.867,1716.44C615.196,1707.84 601.188,1698.35 593.415,1693.07C589.764,1690.6 584.974,1690.6 581.324,1693.07C573.551,1698.35 559.542,1707.84 546.871,1716.44C543.028,1719.04 537.947,1718.89 534.264,1716.06C530.582,1713.24 529.126,1708.37 530.653,1703.98C535.165,1691.02 540.046,1677 542.991,1668.54C544.595,1663.93 542.901,1658.82 538.863,1656.08C531.41,1651.03 518.994,1642.61 507.338,1634.7C503.422,1632.05 501.697,1627.15 503.086,1622.63C504.475,1618.1 508.652,1615.02 513.383,1615.02C528.451,1615.02 544.698,1615.02 553.967,1615.02C558.551,1615.02 562.633,1612.12 564.14,1607.79C567.168,1599.09 572.44,1583.94 577.196,1570.28Z" style="fill:rgb(251,146,60);"/>
    </g>
    <g transform="matrix(0.892803,0,0,0.742447,-373.813,-1071.5)">
        <path d="M577.125,1481.97C578.567,1477.53 582.703,1474.53 587.369,1474.53C592.036,1474.53 596.172,1477.53 597.614,1481.97C608.218,1514.61 624.055,1563.35 630.052,1581.81C631.494,1586.25 635.63,1589.25 640.297,1589.25C659.704,1589.25 710.955,1589.25 745.27,1589.25C749.937,1589.25 754.073,1592.26 755.515,1596.69C756.957,1601.13 755.377,1606 751.602,1608.74C723.84,1628.91 682.377,1659.03 666.676,1670.44C662.901,1673.18 661.321,1678.04 662.763,1682.48C668.761,1700.94 684.598,1749.68 695.202,1782.32C696.644,1786.76 695.064,1791.62 691.289,1794.36C687.513,1797.1 682.401,1797.1 678.626,1794.36C650.864,1774.19 609.402,1744.07 593.701,1732.66C589.925,1729.92 584.813,1729.92 581.038,1732.66C565.337,1744.07 523.874,1774.19 496.113,1794.36C492.337,1797.1 487.225,1797.1 483.45,1794.36C479.674,1791.62 478.095,1786.76 479.537,1782.32C490.141,1749.68 505.978,1700.94 511.975,1682.48C513.417,1678.04 511.837,1673.18 508.062,1670.44C492.361,1659.03 450.899,1628.91 423.137,1608.74C419.361,1606 417.782,1601.13 419.224,1596.69C420.666,1592.26 424.802,1589.25 429.468,1589.25C463.784,1589.25 515.034,1589.25 534.442,1589.25C539.108,1589.25 543.244,1586.25 544.686,1581.81C550.683,1563.35 566.521,1514.61 577.125,1481.97ZM577.196,1570.28C578.703,1565.95 582.785,1563.05 587.369,1563.05C591.953,1563.05 596.035,1565.95 597.542,1570.28C602.299,1583.94 607.57,1599.09 610.599,1607.79C612.106,1612.12 616.187,1615.02 620.771,1615.02C630.041,1615.02 646.287,1615.02 661.355,1615.02C666.086,1615.02 670.263,1618.1 671.652,1622.63C673.041,1627.15 671.316,1632.05 667.401,1634.7C655.744,1642.61 643.328,1651.03 635.875,1656.08C631.837,1658.82 630.144,1663.93 631.748,1668.54C634.692,1677 639.573,1691.02 644.086,1703.98C645.612,1708.37 644.157,1713.24 640.474,1716.06C636.792,1718.89 631.711,1719.04 627.867,1716.44C615.196,1707.84 601.188,1698.35 593.415,1693.07C589.764,1690.6 584.974,1690.6 581.324,1693.07C573.551,1698.35 559.542,1707.84 546.871,1716.44C543.028,1719.04 537.947,1718.89 534.264,1716.06C530.582,1713.24 529.126,1708.37 530.653,1703.98C535.165,1691.02 540.046,1677 542.991,1668.54C544.595,1663.93 542.901,1658.82 538.863,1656.08C531.41,1651.03 518.994,1642.61 507.338,1634.7C503.422,1632.05 501.697,1627.15 503.086,1622.63C504.475,1618.1 508.652,1615.02 513.383,1615.02C528.451,1615.02 544.698,1615.02 553.967,1615.02C558.551,1615.02 562.633,1612.12 564.14,1607.79C567.168,1599.09 572.44,1583.94 577.196,1570.28Z" style="fill:rgb(254,240,138);"/>
    </g>
</svg>
